<?xml version="1.0" standalone="no"?>
<!DOCTYPE svg PUBLIC "-//W3C//DTD SVG 20010904//EN"
 "http://www.w3.org/TR/2001/REC-SVG-20010904/DTD/svg10.dtd">
<svg version="1.0" xmlns="http://www.w3.org/2000/svg"
 width="816.000000pt" height="59.000000pt" viewBox="0 0 816.000000 59.000000"
 preserveAspectRatio="xMidYMid meet">
<metadata>
Created by potrace 1.16, written by Peter Selinger 2001-2019
</metadata>
<g transform="translate(0.000000,59.000000) scale(0.100000,-0.100000)"
fill="#000000" stroke="none">
<path d="M70 310 l0 -170 35 0 35 0 0 103 0 102 68 -102 c65 -100 68 -103 105
-103 l37 0 0 170 0 170 -35 0 -35 0 0 -107 0 -108 -71 108 c-68 101 -74 107
-105 107 l-34 0 0 -170z"/>
<path d="M430 310 l0 -170 95 0 95 0 0 30 0 30 -60 0 -60 0 0 45 0 45 60 0 60
0 0 30 0 30 -60 0 -60 0 0 35 0 35 60 0 60 0 0 30 0 30 -95 0 -95 0 0 -170z"/>
<path d="M653 459 c4 -13 21 -90 38 -171 l33 -148 37 0 c42 0 33 -17 83 159
l13 44 28 -101 27 -102 39 0 c22 0 39 1 39 3 0 2 16 74 35 160 19 86 35 161
35 167 0 5 -16 10 -35 10 -28 0 -36 -4 -40 -22 -3 -13 -13 -58 -23 -101 l-18
-77 -12 47 c-41 154 -41 153 -76 153 -32 0 -33 -2 -51 -67 -34 -128 -35 -129
-59 -28 l-22 90 -38 3 c-36 3 -38 2 -33 -19z"/>
<path d="M1240 310 l0 -170 35 0 35 0 0 103 0 102 68 -102 c65 -100 68 -103
105 -103 l37 0 0 170 0 170 -35 0 -35 0 0 -107 0 -108 -71 108 c-68 101 -74
107 -105 107 l-34 0 0 -170z"/>
<path d="M1600 310 l0 -170 95 0 95 0 0 30 0 30 -60 0 -60 0 0 45 0 45 60 0
60 0 0 30 0 30 -60 0 -60 0 0 35 0 35 60 0 60 0 0 30 0 30 -95 0 -95 0 0 -170z"/>
<path d="M1823 459 c4 -13 21 -90 38 -171 l33 -148 37 0 c42 0 33 -17 83 159
l13 44 28 -101 27 -102 39 0 c22 0 39 1 39 3 0 2 16 74 35 160 19 86 35 161
35 167 0 5 -16 10 -35 10 -28 0 -36 -4 -40 -22 -3 -13 -13 -58 -23 -101 l-18
-77 -12 47 c-41 154 -41 153 -76 153 -32 0 -33 -2 -51 -67 -34 -128 -35 -129
-59 -28 l-22 90 -38 3 c-36 3 -38 2 -33 -19z"/>
<path d="M2410 310 l0 -170 35 0 35 0 0 103 0 102 68 -102 c65 -100 68 -103
105 -103 l37 0 0 170 0 170 -35 0 -35 0 0 -107 0 -108 -71 108 c-68 101 -74
107 -105 107 l-34 0 0 -170z"/>
<path d="M2770 310 l0 -170 95 0 95 0 0 30 0 30 -60 0 -60 0 0 45 0 45 60 0
60 0 0 30 0 30 -60 0 -60 0 0 35 0 35 60 0 60 0 0 30 0 30 -95 0 -95 0 0 -170z"/>
<path d="M2993 459 c4 -13 21 -90 38 -171 l33 -148 37 0 c42 0 33 -17 83 159
l13 44 28 -101 27 -102 39 0 c22 0 39 1 39 3 0 2 16 74 35 160 19 86 35 161
35 167 0 5 -16 10 -35 10 -28 0 -36 -4 -40 -22 -3 -13 -13 -58 -23 -101 l-18
-77 -12 47 c-41 154 -41 153 -76 153 -32 0 -33 -2 -51 -67 -34 -128 -35 -129
-59 -28 l-22 90 -38 3 c-36 3 -38 2 -33 -19z"/>
<path d="M3580 310 l0 -170 35 0 35 0 0 103 0 102 68 -102 c65 -100 68 -103
105 -103 l37 0 0 170 0 170 -35 0 -35 0 0 -107 0 -108 -71 108 c-68 101 -74
107 -105 107 l-34 0 0 -170z"/>
<path d="M3940 310 l0 -170 95 0 95 0 0 30 0 30 -60 0 -60 0 0 45 0 45 60 0
60 0 0 30 0 30 -60 0 -60 0 0 35 0 35 60 0 60 0 0 30 0 30 -95 0 -95 0 0 -170z"/>
<path d="M4163 459 c4 -13 21 -90 38 -171 l33 -148 37 0 c42 0 33 -17 83 159
l13 44 28 -101 27 -102 39 0 c22 0 39 1 39 3 0 2 16 74 35 160 19 86 35 161
35 167 0 5 -16 10 -35 10 -28 0 -36 -4 -40 -22 -3 -13 -13 -58 -23 -101 l-18
-77 -12 47 c-41 154 -41 153 -76 153 -32 0 -33 -2 -51 -67 -34 -128 -35 -129
-59 -28 l-22 90 -38 3 c-36 3 -38 2 -33 -19z"/>
<path d="M4750 310 l0 -170 35 0 35 0 0 103 0 102 68 -102 c65 -100 68 -103
105 -103 l37 0 0 170 0 170 -35 0 -35 0 0 -107 0 -108 -71 108 c-68 101 -74
107 -105 107 l-34 0 0 -170z"/>
<path d="M5110 310 l0 -170 95 0 95 0 0 30 0 30 -60 0 -60 0 0 45 0 45 60 0
60 0 0 30 0 30 -60 0 -60 0 0 35 0 35 60 0 60 0 0 30 0 30 -95 0 -95 0 0 -170z"/>
<path d="M5333 459 c4 -13 21 -90 38 -171 l33 -148 37 0 c42 0 33 -17 83 159
l13 44 28 -101 27 -102 39 0 c22 0 39 1 39 3 0 2 16 74 35 160 19 86 35 161
35 167 0 5 -16 10 -35 10 -28 0 -36 -4 -40 -22 -3 -13 -13 -58 -23 -101 l-18
-77 -12 47 c-41 154 -41 153 -76 153 -32 0 -33 -2 -51 -67 -34 -128 -35 -129
-59 -28 l-22 90 -38 3 c-36 3 -38 2 -33 -19z"/>
<path d="M5930 310 l0 -170 35 0 35 0 0 103 0 102 68 -102 c65 -100 68 -103
105 -103 l37 0 0 170 0 170 -35 0 -35 0 0 -107 0 -108 -71 108 c-68 101 -74
107 -105 107 l-34 0 0 -170z"/>
<path d="M6280 310 l0 -170 95 0 95 0 0 30 0 30 -60 0 -60 0 0 45 0 45 60 0
60 0 0 30 0 30 -60 0 -60 0 0 35 0 35 60 0 60 0 0 30 0 30 -95 0 -95 0 0 -170z"/>
<path d="M6503 459 c4 -13 21 -90 38 -171 l33 -148 37 0 c42 0 33 -17 83 159
l13 44 28 -101 27 -102 39 0 c22 0 39 1 39 3 0 2 16 74 35 160 19 86 35 161
35 167 0 5 -16 10 -35 10 -28 0 -36 -4 -40 -22 -3 -13 -13 -58 -23 -101 l-18
-77 -12 47 c-41 154 -41 153 -76 153 -32 0 -33 -2 -51 -67 -34 -128 -35 -129
-59 -28 l-22 90 -38 3 c-36 3 -38 2 -33 -19z"/>
<path d="M7100 310 l0 -170 35 0 35 0 0 103 0 102 68 -102 c65 -100 68 -103
105 -103 l37 0 0 170 0 170 -35 0 -35 0 0 -107 0 -108 -71 108 c-68 101 -74
107 -105 107 l-34 0 0 -170z"/>
<path d="M7450 310 l0 -170 95 0 95 0 0 30 0 30 -60 0 -60 0 0 45 0 45 60 0
60 0 0 30 0 30 -60 0 -60 0 0 35 0 35 60 0 60 0 0 30 0 30 -95 0 -95 0 0 -170z"/>
<path d="M7673 459 c4 -13 21 -90 38 -171 l33 -148 37 0 c42 0 33 -17 83 159
l13 44 28 -101 27 -102 39 0 c22 0 39 1 39 3 0 2 16 74 35 160 19 86 35 161
35 167 0 5 -16 10 -35 10 -28 0 -36 -4 -40 -22 -3 -13 -13 -58 -23 -101 l-18
-77 -12 47 c-41 154 -41 153 -76 153 -32 0 -33 -2 -51 -67 -34 -128 -35 -129
-59 -28 l-22 90 -38 3 c-36 3 -38 2 -33 -19z"/>
</g>
</svg>
